<?xml version="1.0" encoding="UTF-8" standalone="no"?>
<!-- Created with Inkscape (http://www.inkscape.org/) -->

<svg
   width="102.90551mm"
   height="34.195911mm"
   viewBox="0 0 102.90551 34.195911"
   version="1.1"
   id="svg5"
   sodipodi:docname="logoshadow.svg"
   inkscape:version="1.1.2 (0a00cf5339, 2022-02-04)"
   xmlns:inkscape="http://www.inkscape.org/namespaces/inkscape"
   xmlns:sodipodi="http://sodipodi.sourceforge.net/DTD/sodipodi-0.dtd"
   xmlns="http://www.w3.org/2000/svg"
   xmlns:svg="http://www.w3.org/2000/svg">
  <sodipodi:namedview
     id="namedview7"
     pagecolor="#ffffff"
     bordercolor="#111111"
     borderopacity="1"
     inkscape:pageshadow="0"
     inkscape:pageopacity="0"
     inkscape:pagecheckerboard="1"
     inkscape:document-units="mm"
     showgrid="false"
     fit-margin-top="0"
     fit-margin-left="0"
     fit-margin-right="0"
     fit-margin-bottom="0"
     inkscape:zoom="3.1108586"
     inkscape:cx="240.60882"
     inkscape:cy="135.65387"
     inkscape:window-width="2560"
     inkscape:window-height="1416"
     inkscape:window-x="2560"
     inkscape:window-y="24"
     inkscape:window-maximized="0"
     inkscape:current-layer="g14944" />
  <defs
     id="defs2">
    <linearGradient
       id="linearGradient3635"
       inkscape:swatch="solid">
      <stop
         style="stop-color:#ffffff;stop-opacity:1;"
         offset="0"
         id="stop3633" />
    </linearGradient>
  </defs>
  <g
     inkscape:label="Layer 1"
     inkscape:groupmode="layer"
     id="layer1"
     transform="translate(-2.8737986,-60.595725)">
    <g
       id="g14944"
       transform="rotate(-3.4,70.827971,50.795322)">
      <path
         style="color:#000000;opacity:1;fill:#ffffff;stroke:#070707;stroke-width:2.9;stroke-linecap:round;stroke-linejoin:round;stroke-miterlimit:4;stroke-dasharray:none;stroke-opacity:1"
         d="m 25.333889,59.374563 c -4.836203,0.320306 -9.676656,0.547848 -14.521484,0.685547 A 1.50015,1.50015 0 0 0 9.5096698,60.898001 C 7.368961,65.246428 5.1468181,69.55333 2.8436542,73.817923 a 1.50015,1.50015 0 0 0 0.027344,0.5625 1.50015,1.50015 0 0 0 0.017578,0.394531 1.50015,1.50015 0 0 0 0.029297,0.589844 c 2.6954945,4.028121 5.313805,8.105527 7.8554688,12.232422 a 1.50015,1.50015 0 0 0 1.376953,0.708984 c 4.836203,-0.320306 9.676657,-0.547848 14.521485,-0.685547 a 1.50015,1.50015 0 0 0 0.800781,-0.509766 1.50015,1.50015 0 0 0 0.449219,-0.287109 1.50015,1.50015 0 0 0 0.04883,-0.03125 l 3.267578,-6.525391 3.40625,-6.412109 A 1.50015,1.50015 0 0 0 34.566308,72.31597 C 31.870812,68.28785 29.252502,64.210443 26.710839,60.083548 A 1.50015,1.50015 0 0 0 25.333886,59.374563 Z M 23.048733,62.483938 18.456936,72.52886 6.6717788,72.94097 c 1.7468746,-3.28681 3.4673642,-6.587966 5.1191412,-9.923829 3.755489,-0.115387 7.507482,-0.308914 11.257813,-0.533203 z m 2.607422,1.509766 c 1.93948,3.099295 3.90139,6.185018 5.927734,9.228516 l -3.011719,5.669921 a 1.50015,1.50015 0 0 0 -0.01758,0.03125 l -2.037109,4.06836 -5.390625,-9.085938 v -0.002 z m 15.357421,4.259766 a 1.5,1.5 0 0 0 -1.779296,1.15625 l -2.695313,12.658203 a 1.5,1.5 0 0 0 1.15625,1.779297 1.5,1.5 0 0 0 1.779297,-1.15625 l 0.318359,-1.494141 c 8.91e-4,0.0011 0.0011,0.0028 0.002,0.0039 1.387319,1.742389 3.306014,2.999607 5.121094,3.765625 a 1.5,1.5 0 0 0 1.964797,-0.798822 1.5,1.5 0 0 0 -0.798828,-1.964844 c -1.400162,-0.590909 -2.975682,-1.660655 -3.939453,-2.871093 -0.951216,-1.194671 -1.325158,-2.34386 -0.865235,-3.712891 0.396668,-0.871731 1.099464,-1.3912 2.13086,-1.71875 1.053791,-0.334662 2.387441,-0.385715 3.517578,-0.238281 a 1.5,1.5 0 0 0 1.68164,-1.292969 1.5,1.5 0 0 0 -1.292968,-1.681641 c -1.486709,-0.193951 -3.190108,-0.162342 -4.814453,0.353516 -0.215411,0.06841 -0.402544,0.237037 -0.615235,0.326172 l 0.283203,-1.333985 A 1.5,1.5 0 0 0 41.013576,68.25347 Z m 10.208985,3.833984 a 1.5,1.5 0 0 0 -1.88086,0.982422 1.5,1.5 0 0 0 0.984375,1.880859 c 0.389105,0.121751 0.506945,0.218018 0.566407,0.263672 -0.02494,0.06683 -0.188198,0.584015 -0.650391,1.291016 -0.494309,0.756127 -1.1695,1.646197 -1.685547,2.669922 -0.511962,1.01562 -0.914816,2.343756 -0.371094,3.679687 0.375364,0.992229 1.162193,1.678711 1.945313,2.044922 0.794553,0.371557 1.604303,0.493834 2.341797,0.503906 a 1.5,1.5 0 0 0 1.519531,-1.478515 1.5,1.5 0 0 0 -1.478516,-1.521485 c -0.399824,-0.0055 -0.836613,-0.09224 -1.111328,-0.220703 -0.274715,-0.128465 -0.360725,-0.223443 -0.419922,-0.386719 a 1.50015,1.50015 0 0 0 -0.02539,-0.06836 c -0.07839,-0.187348 -0.06365,-0.524721 0.277344,-1.201172 0.340991,-0.676451 0.949323,-1.509666 1.517578,-2.378906 0.568254,-0.86924 1.2091,-1.762135 1.183593,-3.082031 -0.01275,-0.659949 -0.311593,-1.40774 -0.820312,-1.919922 -0.508719,-0.512183 -1.144237,-0.824438 -1.892578,-1.058593 z m 7.52539,0.576172 a 1.50015,1.50015 0 0 0 -1.273437,2.433594 c 0.469524,0.586787 0.879612,1.234827 1.373047,1.859375 a 1.5,1.5 0 0 0 -2.035156,0.421875 c -0.294631,0.440728 -0.570852,0.913321 -0.806641,1.421875 l 0.158203,-0.263672 c -0.817246,1.098676 -1.07228,2.423361 -0.863281,3.580078 0.208998,1.156717 0.818163,2.154505 1.634765,2.902344 0.816603,0.747838 1.866792,1.268951 3.042969,1.33789 1.176177,0.06894 2.46073,-0.397053 3.41211,-1.388672 a 1.50015,1.50015 0 0 0 0.238281,-0.328125 c 1.233612,-2.293811 0.68356,-4.746163 -0.332031,-6.65039 -0.450664,-0.844991 -0.997281,-1.39133 -1.544922,-2.115235 0.352131,0.02401 0.704509,0.04825 1.05664,0.07227 a 1.5,1.5 0 0 0 1.597657,-1.394531 1.5,1.5 0 0 0 -1.394532,-1.597657 c -1.421519,-0.09693 -2.842146,-0.194082 -4.263672,-0.291015 z m 23.417969,0.480469 c -1.129158,0.214976 -2.203793,0.696538 -3.080078,1.5 a 1.5,1.5 0 0 0 -0.09375,2.11914 1.5,1.5 0 0 0 2.121094,0.0918 c 0.574483,-0.526741 2.594958,-0.974491 3.753906,-0.695312 0.579474,0.139589 0.821448,0.380881 0.849609,0.435546 0.02532,0.04914 0.03324,0.298351 -0.294921,0.886719 0.05955,-0.09467 -0.134475,0.08569 -0.541016,0.212891 -0.441543,0.138155 -1.000083,0.243924 -1.429688,0.3125 -0.214802,0.03429 -0.392429,0.05773 -0.550781,0.08398 -0.07918,0.01313 -0.120947,0.01126 -0.308594,0.06641 -0.04691,0.01379 -0.105277,0.03127 -0.21289,0.08008 -0.05381,0.0244 -0.120293,0.05477 -0.216797,0.11914 -0.04825,0.03218 -0.104567,0.07433 -0.169922,0.132813 -0.06535,0.05849 -0.220421,0.2457 -0.220703,0.246093 -2.82e-4,3.94e-4 -0.218637,0.450787 -0.21875,0.451172 -1.13e-4,3.86e-4 -0.04498,0.646106 -0.04492,0.646485 5.7e-5,3.78e-4 0.206803,0.564082 0.207031,0.564453 2.29e-4,3.71e-4 0.271083,0.325808 0.271485,0.326172 4.02e-4,3.64e-4 0.156633,0.125608 0.21875,0.164062 0.06212,0.03845 0.113409,0.0651 0.158203,0.08594 0.08959,0.04168 0.152807,0.06283 0.203125,0.07813 0.402539,0.122367 0.369373,0.07003 0.466797,0.07617 0.09742,0.0061 0.201362,0.0095 0.332031,0.01367 0.261337,0.0083 0.626659,0.01599 1.136719,0.02734 a 1.50015,1.50015 0 0 0 0.130859,-0.002 c 0.899229,-0.05911 1.09782,0.155629 1.275391,0.417969 0.177571,0.26234 0.27165,0.784532 0.148437,1.302734 -0.123213,0.518203 -0.440525,0.934352 -0.707031,1.080078 -0.266506,0.145727 -0.536285,0.249079 -1.318359,-0.224609 A 1.50015,1.50015 0 0 0 83.800688,83.628427 C 83.097211,83.352767 82.41625,82.980809 81.77725,82.53663 a 1.5,1.5 0 0 0 -2.08789,0.376953 1.5,1.5 0 0 0 0.376953,2.08789 c 0.7549,0.524744 1.582777,0.961515 2.451172,1.320313 1.444707,0.858132 3.079603,0.931022 4.271484,0.279297 1.202884,-0.657741 1.899748,-1.815582 2.185547,-3.017578 0.285799,-1.201997 0.185036,-2.546438 -0.582031,-3.679688 -0.151957,-0.224498 -0.441413,-0.339283 -0.646485,-0.527344 0.03544,-0.04216 0.07659,-0.04999 0.111328,-0.0957 a 1.50015,1.50015 0 0 0 0.08008,-0.11914 c 0.808275,-1.3045 1.044897,-2.779368 0.447265,-3.939453 -0.597635,-1.160046 -1.721807,-1.715268 -2.814456,-1.978476 -1.092648,-0.263208 -2.275138,-0.314585 -3.404297,-0.09961 z m -14.445312,0.15625 a 1.50015,1.50015 0 0 0 -0.900391,1.173828 l -0.0078,0.06055 -2.28125,16.892578 a 1.5,1.5 0 0 0 1.285156,1.6875 1.5,1.5 0 0 0 1.6875,-1.285157 l 0.990234,-7.341796 c 0.271167,0.333779 0.409497,0.728636 0.761719,1.019531 a 1.50015,1.50015 0 0 0 0.259766,0.173828 c 1.19703,0.627177 2.496126,0.769441 3.607421,0.439453 1.111296,-0.329987 1.980738,-1.057422 2.632813,-1.896484 0.05059,-0.0651 0.06285,-0.150275 0.111328,-0.216797 l 0.488281,3.347656 a 1.5,1.5 0 0 0 1.701172,1.267578 1.5,1.5 0 0 0 1.267578,-1.701172 l -1.445312,-9.898437 -0.002,-0.01758 c -0.110129,-0.822011 -0.174417,-1.303543 -0.230469,-1.617188 -0.01417,-0.07926 -0.02358,-0.142881 -0.05469,-0.257812 -0.01556,-0.05747 -0.02465,-0.116347 -0.105468,-0.285157 -0.04041,-0.0844 -0.08384,-0.202635 -0.28711,-0.410156 -0.05082,-0.05188 -0.196931,-0.167728 -0.197265,-0.167969 -3.35e-4,-2.4e-4 -0.318034,-0.175651 -0.31836,-0.175781 -3.25e-4,-1.3e-4 -0.460621,-0.105448 -0.460937,-0.105469 -3.16e-4,-2e-5 -0.513365,0.05655 -0.513672,0.05664 -3.07e-4,8.9e-5 -0.411811,0.189256 -0.412109,0.189453 -2.98e-4,1.97e-4 -0.26143,0.220399 -0.261719,0.220703 -5.78e-4,6.1e-4 -0.196509,0.250731 -0.242188,0.337891 -0.09136,0.174319 -0.110982,0.265392 -0.128906,0.335937 -0.03585,0.141092 -0.03762,0.197467 -0.04297,0.25 -0.0107,0.105068 -0.01191,0.166251 -0.01367,0.236329 -0.01408,0.560621 0.01912,1.605423 -0.03711,2.8125 a 1.50015,1.50015 0 0 0 0,0.142578 c 0.05493,1.131348 -0.439093,2.856462 -1.183594,3.814453 -0.37225,0.478996 -0.76514,0.756211 -1.11914,0.861328 -0.315372,0.09365 -0.69295,0.0362 -1.210938,-0.197266 -0.910108,-0.826413 -1.32901,-1.909417 -1.464844,-3.33789 -0.142904,-1.502829 0.05597,-3.258534 0.208985,-4.894532 a 1.50015,1.50015 0 0 0 -2.080078,-1.513671 z m 24.060547,0.322265 a 1.5,1.5 0 0 0 -1.585938,1.408203 1.5,1.5 0 0 0 1.408203,1.585938 l 2.173828,0.128906 c -0.108205,1.433361 -0.382399,3.109389 -0.330078,5.021484 0.03235,1.182139 0.213147,2.401918 0.824219,3.521485 0.611072,1.119567 1.706093,2.062383 3.150388,2.52539 a 1.50015,1.50015 0 0 0 0.14063,0.03906 c 1.144385,0.248336 2.241708,0.248864 3.244133,0.21875 a 1.5,1.5 0 0 0 1.45313,-1.544922 1.5,1.5 0 0 0 -1.54493,-1.455078 c -0.886945,0.02665 -1.694303,-0.001 -2.419893,-0.146484 -0.76547,-0.258697 -1.12322,-0.584255 -1.390645,-1.074219 -0.275692,-0.505105 -0.432038,-1.252598 -0.457032,-2.166016 -0.03845,-1.405311 0.198942,-3.118537 0.314452,-4.759765 l 3.874998,0.230468 a 1.5,1.5 0 0 0 1.58789,-1.408203 1.5,1.5 0 0 0 -1.4082,-1.585937 z m -73.181641,1.902344 5.464844,9.214844 c -3.741715,0.130692 -7.482163,0.292419 -11.21875,0.53125 C 10.898771,82.1262 8.8852454,79.024816 6.8495138,75.937063 Z m 40.898437,2.314453 c 0.386876,0.529909 0.872897,1.038539 1.152344,1.5625 0.718806,1.347755 0.899686,2.423161 0.384766,3.574219 -0.305798,0.249419 -0.578877,0.402466 -0.88086,0.384765 -0.367648,-0.02155 -0.820793,-0.215282 -1.191406,-0.554687 -0.370613,-0.339405 -0.632865,-0.801367 -0.708984,-1.222656 -0.07612,-0.421289 -0.02881,-0.793711 0.316406,-1.257813 a 1.50015,1.50015 0 0 0 0.158203,-0.263672 c 0.157727,-0.340187 0.353122,-0.67905 0.578125,-1.015625 a 1.5,1.5 0 0 0 0.191406,-1.207031 z"
         id="path13886" />
      <path
         style="color:#000000;fill:#ffffff;stroke-linecap:round;stroke-linejoin:round;-inkscape-stroke:none"
         d="m 25.365272,58.846328 c -4.836203,0.320306 -9.676656,0.547848 -14.521484,0.685547 A 1.50015,1.50015 0 0 0 9.5410528,60.369766 C 7.4003436,64.718193 5.1782011,69.025095 2.8750372,73.289688 a 1.50015,1.50015 0 0 0 0.027344,0.5625 1.50015,1.50015 0 0 0 0.017578,0.394531 1.50015,1.50015 0 0 0 0.029297,0.589844 c 2.6954945,4.028121 5.3138051,8.105527 7.8554688,12.232422 a 1.50015,1.50015 0 0 0 1.376953,0.708984 c 4.836203,-0.320306 9.676657,-0.547848 14.521485,-0.685547 a 1.50015,1.50015 0 0 0 0.800781,-0.509766 1.50015,1.50015 0 0 0 0.449219,-0.287109 1.50015,1.50015 0 0 0 0.04883,-0.03125 l 3.267578,-6.525391 3.40625,-6.412109 a 1.50015,1.50015 0 0 0 -0.07813,-1.539062 c -2.695496,-4.02812 -5.313806,-8.105527 -7.855469,-12.232422 a 1.50015,1.50015 0 0 0 -1.376953,-0.708985 z m -2.285156,3.109375 -4.591797,10.044922 -11.7851568,0.41211 c 1.7468741,-3.28681 3.4673638,-6.587966 5.1191408,-9.923829 3.755489,-0.115387 7.507482,-0.308914 11.257813,-0.533203 z m 2.607422,1.509766 c 1.93948,3.099295 3.90139,6.185018 5.927734,9.228516 l -3.011719,5.669921 a 1.50015,1.50015 0 0 0 -0.01758,0.03125 l -2.037109,4.06836 -5.390625,-9.085938 v -0.002 z m 15.357421,4.259766 a 1.5,1.5 0 0 0 -1.779296,1.15625 L 36.57035,81.539688 a 1.5,1.5 0 0 0 1.15625,1.779297 1.5,1.5 0 0 0 1.779297,-1.15625 l 0.318359,-1.494141 c 8.91e-4,0.0011 0.0011,0.0028 0.002,0.0039 1.387319,1.742389 3.306014,2.999607 5.121094,3.765625 a 1.5,1.5 0 0 0 1.964797,-0.798822 1.5,1.5 0 0 0 -0.798828,-1.964844 C 44.713157,81.083544 43.137637,80.013798 42.173866,78.80336 41.22265,77.608689 40.848708,76.4595 41.308631,75.090469 c 0.396668,-0.871731 1.099464,-1.3912 2.13086,-1.71875 1.053791,-0.334662 2.387441,-0.385715 3.517578,-0.238281 a 1.5,1.5 0 0 0 1.68164,-1.292969 1.5,1.5 0 0 0 -1.292968,-1.681641 c -1.486709,-0.193951 -3.190108,-0.162342 -4.814453,0.353516 -0.215411,0.06841 -0.402544,0.237037 -0.615235,0.326172 l 0.283203,-1.333985 a 1.5,1.5 0 0 0 -1.154297,-1.779296 z m 10.208985,3.833984 a 1.5,1.5 0 0 0 -1.88086,0.982422 1.5,1.5 0 0 0 0.984375,1.880859 c 0.389105,0.121751 0.506945,0.218018 0.566407,0.263672 -0.02494,0.06683 -0.188198,0.584015 -0.650391,1.291016 -0.494309,0.756127 -1.1695,1.646197 -1.685547,2.669922 -0.511962,1.01562 -0.914816,2.343756 -0.371094,3.679687 0.375364,0.992229 1.162193,1.678711 1.945313,2.044922 0.794553,0.371557 1.604303,0.493834 2.341797,0.503906 a 1.5,1.5 0 0 0 1.519531,-1.478515 1.5,1.5 0 0 0 -1.478516,-1.521485 c -0.399824,-0.0055 -0.836613,-0.09224 -1.111328,-0.220703 -0.274715,-0.128465 -0.360725,-0.223443 -0.419922,-0.386719 a 1.50015,1.50015 0 0 0 -0.02539,-0.06836 c -0.07839,-0.187348 -0.06365,-0.524721 0.277344,-1.201172 0.340991,-0.676451 0.949323,-1.509666 1.517578,-2.378906 0.568254,-0.86924 1.2091,-1.762135 1.183593,-3.082031 -0.01275,-0.659949 -0.311593,-1.40774 -0.820312,-1.919922 -0.508719,-0.512183 -1.144237,-0.824438 -1.892578,-1.058593 z m 7.52539,0.576172 a 1.50015,1.50015 0 0 0 -1.273437,2.433594 c 0.469524,0.586787 0.879612,1.234827 1.373047,1.859375 a 1.5,1.5 0 0 0 -2.035156,0.421875 c -0.294631,0.440728 -0.570852,0.913321 -0.806641,1.421875 l 0.158203,-0.263672 c -0.817246,1.098676 -1.07228,2.423361 -0.863281,3.580078 0.208998,1.156717 0.818163,2.154505 1.634765,2.902344 0.816603,0.747838 1.866792,1.268951 3.042969,1.33789 1.176177,0.06894 2.46073,-0.397053 3.41211,-1.388672 a 1.50015,1.50015 0 0 0 0.238281,-0.328125 c 1.233612,-2.293811 0.68356,-4.746163 -0.332031,-6.65039 -0.450664,-0.844991 -0.997281,-1.39133 -1.544922,-2.115235 0.352131,0.02401 0.704509,0.04825 1.05664,0.07227 A 1.5,1.5 0 0 0 64.437538,74.024067 1.5,1.5 0 0 0 63.043006,72.42641 C 61.621487,72.32948 60.20086,72.232328 58.779334,72.135395 Z m 23.417969,0.480469 c -1.129158,0.214976 -2.203793,0.696538 -3.080078,1.5 a 1.5,1.5 0 0 0 -0.09375,2.11914 1.5,1.5 0 0 0 2.121094,0.0918 c 0.574483,-0.526741 2.594958,-0.974491 3.753906,-0.695312 0.579474,0.139589 0.821448,0.380881 0.849609,0.435546 0.02532,0.04914 0.03324,0.298351 -0.294921,0.886719 0.05955,-0.09467 -0.134475,0.08569 -0.541016,0.212891 -0.441543,0.138155 -1.000083,0.243924 -1.429688,0.3125 -0.214802,0.03429 -0.392429,0.05773 -0.550781,0.08398 -0.07918,0.01313 -0.120947,0.01126 -0.308594,0.06641 -0.04691,0.01379 -0.105277,0.03127 -0.21289,0.08008 -0.05381,0.0244 -0.120293,0.05477 -0.216797,0.11914 -0.04825,0.03218 -0.104567,0.07433 -0.169922,0.132813 -0.06535,0.05849 -0.220421,0.2457 -0.220703,0.246093 -2.82e-4,3.94e-4 -0.218637,0.450787 -0.21875,0.451172 -1.13e-4,3.86e-4 -0.04498,0.646106 -0.04492,0.646485 5.7e-5,3.78e-4 0.206803,0.564082 0.207031,0.564453 2.29e-4,3.71e-4 0.271083,0.325808 0.271485,0.326172 4.02e-4,3.64e-4 0.156633,0.125608 0.21875,0.164062 0.06212,0.03845 0.113409,0.0651 0.158203,0.08594 0.08959,0.04168 0.152807,0.06283 0.203125,0.07813 0.402539,0.122367 0.369373,0.07003 0.466797,0.07617 0.09742,0.0061 0.201362,0.0095 0.332031,0.01367 0.261337,0.0083 0.626659,0.01599 1.136719,0.02734 a 1.50015,1.50015 0 0 0 0.130859,-0.002 c 0.899229,-0.05911 1.09782,0.155629 1.275391,0.417969 0.177571,0.26234 0.27165,0.784532 0.148437,1.302734 -0.123213,0.518203 -0.440525,0.934352 -0.707031,1.080078 -0.266506,0.145727 -0.536285,0.249079 -1.318359,-0.224609 a 1.50015,1.50015 0 0 0 -0.230469,-0.115234 c -0.703477,-0.27566 -1.384438,-0.647618 -2.023438,-1.091797 a 1.5,1.5 0 0 0 -2.08789,0.376953 1.5,1.5 0 0 0 0.376953,2.08789 c 0.7549,0.524744 1.582777,0.961515 2.451172,1.320313 1.444707,0.858132 3.079603,0.931022 4.271484,0.279297 1.202884,-0.657741 1.899748,-1.815582 2.185547,-3.017578 0.285799,-1.201997 0.185036,-2.546438 -0.582031,-3.679688 -0.151957,-0.224498 -0.441413,-0.339283 -0.646485,-0.527344 0.03544,-0.04216 0.07659,-0.04999 0.111328,-0.0957 a 1.50015,1.50015 0 0 0 0.08008,-0.11914 c 0.808275,-1.3045 1.044897,-2.779368 0.447265,-3.939453 C 87.818421,73.533899 86.694249,72.978677 85.6016,72.715469 84.508952,72.452261 83.326462,72.400884 82.197303,72.61586 Z M 67.751991,72.77211 A 1.50015,1.50015 0 0 0 66.8516,73.945938 l -0.0078,0.06055 -2.28125,16.892578 a 1.5,1.5 0 0 0 1.285156,1.6875 1.5,1.5 0 0 0 1.6875,-1.285157 l 0.990234,-7.341796 c 0.271167,0.333779 0.409497,0.728636 0.761719,1.019531 a 1.50015,1.50015 0 0 0 0.259766,0.173828 c 1.19703,0.627177 2.496126,0.769441 3.607421,0.439453 1.111296,-0.329987 1.980738,-1.057422 2.632813,-1.896484 0.05059,-0.0651 0.06285,-0.150275 0.111328,-0.216797 l 0.488281,3.347656 a 1.5,1.5 0 0 0 1.701172,1.267578 1.5,1.5 0 0 0 1.267578,-1.701172 l -1.445312,-9.898437 -0.002,-0.01758 c -0.110129,-0.822011 -0.174417,-1.303543 -0.230469,-1.617188 -0.01417,-0.07926 -0.02358,-0.142881 -0.05469,-0.257812 -0.01556,-0.05747 -0.02465,-0.116347 -0.105468,-0.285157 -0.04041,-0.0844 -0.08384,-0.202635 -0.28711,-0.410156 -0.05082,-0.05188 -0.196931,-0.167728 -0.197265,-0.167969 -3.35e-4,-2.4e-4 -0.318034,-0.175651 -0.31836,-0.175781 -3.25e-4,-1.3e-4 -0.460621,-0.105448 -0.460937,-0.105469 -3.16e-4,-2e-5 -0.513365,0.05655 -0.513672,0.05664 -3.07e-4,8.9e-5 -0.411811,0.189256 -0.412109,0.189453 -2.98e-4,1.97e-4 -0.26143,0.220399 -0.261719,0.220703 -5.78e-4,6.1e-4 -0.196509,0.250731 -0.242188,0.337891 -0.09136,0.174319 -0.110982,0.265392 -0.128906,0.335937 -0.03585,0.141092 -0.03762,0.197467 -0.04297,0.25 -0.0107,0.105068 -0.01191,0.166251 -0.01367,0.236329 -0.01408,0.560621 0.01912,1.605423 -0.03711,2.8125 a 1.50015,1.50015 0 0 0 0,0.142578 c 0.05493,1.131348 -0.439093,2.856462 -1.183594,3.814453 -0.37225,0.478996 -0.76514,0.756211 -1.11914,0.861328 -0.315372,0.09365 -0.69295,0.0362 -1.210938,-0.197266 -0.910108,-0.826413 -1.32901,-1.909417 -1.464844,-3.33789 -0.142904,-1.502829 0.05597,-3.258534 0.208985,-4.894532 A 1.50015,1.50015 0 0 0 67.751954,72.77211 Z m 24.060547,0.322265 a 1.5,1.5 0 0 0 -1.585938,1.408203 1.5,1.5 0 0 0 1.408203,1.585938 l 2.173828,0.128906 c -0.108205,1.433361 -0.382399,3.109389 -0.330078,5.021484 0.03235,1.182139 0.213147,2.401918 0.824219,3.521485 0.611072,1.119567 1.706093,2.062383 3.150391,2.52539 a 1.50015,1.50015 0 0 0 0.140625,0.03906 c 1.144371,0.248336 2.241707,0.248864 3.244132,0.21875 a 1.5,1.5 0 0 0 1.45313,-1.544922 1.5,1.5 0 0 0 -1.54493,-1.455078 c -0.886945,0.02665 -1.694303,-0.001 -2.419911,-0.146484 -0.765445,-0.258697 -1.123197,-0.584255 -1.390625,-1.074219 -0.275691,-0.505105 -0.432037,-1.252598 -0.457031,-2.166016 -0.03845,-1.405311 0.19894,-3.118537 0.314453,-4.759765 l 3.874994,0.230468 a 1.5,1.5 0 0 0 1.58789,-1.408203 1.5,1.5 0 0 0 -1.4082,-1.585937 z m -73.181641,1.902344 5.464844,9.214844 c -3.741715,0.130692 -7.482163,0.292419 -11.21875,0.53125 -1.946837,-3.144848 -3.9603624,-6.246232 -5.9960944,-9.333985 z m 40.898437,2.314453 c 0.386876,0.529909 0.872897,1.038539 1.152344,1.5625 0.718806,1.347755 0.899686,2.423161 0.384766,3.574219 -0.305798,0.249419 -0.578877,0.402466 -0.88086,0.384765 -0.367648,-0.02155 -0.820793,-0.215282 -1.191406,-0.554687 -0.370613,-0.339405 -0.632865,-0.801367 -0.708984,-1.222656 -0.07612,-0.421289 -0.02881,-0.793711 0.316406,-1.257813 a 1.50015,1.50015 0 0 0 0.158203,-0.263672 c 0.157727,-0.340187 0.353122,-0.67905 0.578125,-1.015625 a 1.5,1.5 0 0 0 0.191406,-1.207031 z"
         id="path13886-8" />
    </g>
  </g>
</svg>
